<svg width="109" height="58" viewBox="0 0 109 58" fill="none" xmlns="http://www.w3.org/2000/svg">
<g clip-path="url(#clip0_1_111)">
<rect x="4.40051" y="4.40051" width="99.7449" height="48.699" rx="24.3495" stroke="white" stroke-width="8.80102"/>
<path d="M100.925 9.26531L57.7316 23.0832C57.6354 23.0711 57.5356 23.0675 57.4549 23.0839C48.4824 25.2067 39.1431 21.4059 34.2181 13.6087C34.1618 13.5166 34.0842 13.4405 34.0044 13.3759L26.9748 -3.34219C26.8081 -3.7385 26.3509 -3.92494 25.9546 -3.75822C25.5583 -3.59149 25.3718 -3.13428 25.5385 -2.73796L32.5892 14.0135C32.5771 14.1098 32.5734 14.2095 32.5899 14.2903C34.7126 23.2627 30.9118 32.602 23.1146 37.527C23.0226 37.5833 22.9465 37.6609 22.8818 37.7407L12.6369 42.0506C12.2406 42.2173 12.0542 42.6746 12.2209 43.0709C12.3876 43.4672 12.8448 43.6536 13.2412 43.4869L23.5158 39.1645C23.6121 39.1766 23.7118 39.1802 23.7926 39.1638C32.7651 37.041 42.1043 40.8418 47.0294 48.639C47.0856 48.7311 47.1632 48.8072 47.243 48.8718L54.2782 65.5947C54.4449 65.9911 54.9021 66.1775 55.2984 66.0108C55.6948 65.844 55.8812 65.3868 55.7145 64.9905L48.6643 48.2317C48.6764 48.1354 48.68 48.0357 48.6636 47.9549C46.5408 38.9825 50.3416 29.6432 58.1388 24.7182C58.2309 24.6619 58.3069 24.5843 58.3656 24.507L101.53 10.7016C101.926 10.5349 102.112 10.0777 101.946 9.68134C101.779 9.28502 101.322 9.09858 100.925 9.26531Z" fill="white"/>
</g>
<defs>
<clipPath id="clip0_1_111">
<rect width="108.546" height="57.5" rx="28.75" fill="white"/>
</clipPath>
</defs>
</svg>
