<svg width="24" height="24" viewBox="0 0 24 24" fill="none" xmlns="http://www.w3.org/2000/svg">
<path d="M3.10304 13.4692C2.8514 12.2807 2.8514 11.0527 3.10304 9.86416C4.07429 9.97791 4.92304 9.65679 5.19954 8.98829C5.47691 8.31891 5.10504 7.49204 4.33679 6.88566C4.9992 5.86745 5.86745 4.9992 6.88566 4.33679C7.49116 5.10416 8.31891 5.47691 8.98829 5.19954C9.65766 4.92216 9.97879 4.07429 9.86416 3.10304C11.0527 2.8514 12.2807 2.8514 13.4692 3.10304C13.3554 4.07429 13.6765 4.92304 14.345 5.19954C15.0144 5.47691 15.8413 5.10504 16.4477 4.33679C17.4659 4.9992 18.3341 5.86745 18.9965 6.88566C18.2292 7.49116 17.8564 8.31891 18.1338 8.98829C18.4112 9.65766 19.259 9.97879 20.2303 9.86416C20.4819 11.0527 20.4819 12.2807 20.2303 13.4692C19.259 13.3554 18.4103 13.6765 18.1338 14.345C17.8564 15.0144 18.2283 15.8413 18.9965 16.4477C18.3341 17.4659 17.4659 18.3341 16.4477 18.9965C15.8422 18.2292 15.0144 17.8564 14.345 18.1338C13.6757 18.4112 13.3545 19.259 13.4692 20.2303C12.2807 20.4819 11.0527 20.4819 9.86416 20.2303C9.97791 19.259 9.65679 18.4103 8.98829 18.1338C8.31891 17.8564 7.49204 18.2283 6.88566 18.9965C5.86745 18.3341 4.9992 17.4659 4.33679 16.4477C5.10416 15.8422 5.47691 15.0144 5.19954 14.345C4.92216 13.6757 4.07429 13.3545 3.10304 13.4692V13.4692ZM4.66666 11.8504C5.62916 12.1173 6.42279 12.7272 6.81654 13.6757C7.20941 14.625 7.07904 15.6182 6.58729 16.4862C6.67129 16.5754 6.75791 16.662 6.84716 16.746C7.71604 16.2543 8.70829 16.1248 9.65766 16.5168C10.6062 16.9105 11.216 17.7042 11.4829 18.6667C11.6054 18.6702 11.7279 18.6702 11.8504 18.6667C12.1173 17.7042 12.7272 16.9105 13.6757 16.5168C14.625 16.1239 15.6182 16.2543 16.4862 16.746C16.5754 16.662 16.662 16.5754 16.746 16.4862C16.2543 15.6173 16.1248 14.625 16.5168 13.6757C16.9105 12.7272 17.7042 12.1173 18.6667 11.8504C18.6702 11.7279 18.6702 11.6054 18.6667 11.4829C17.7042 11.216 16.9105 10.6062 16.5168 9.65766C16.1239 8.70829 16.2543 7.71516 16.746 6.84716C16.6617 6.75826 16.5751 6.6716 16.4862 6.58729C15.6173 7.07904 14.625 7.20854 13.6757 6.81654C12.7272 6.42279 12.1173 5.62916 11.8504 4.66666C11.7279 4.66342 11.6054 4.66342 11.4829 4.66666C11.216 5.62916 10.6062 6.42279 9.65766 6.81654C8.70829 7.20941 7.71516 7.07904 6.84716 6.58729C6.75791 6.67129 6.67129 6.75791 6.58729 6.84716C7.07904 7.71604 7.20854 8.70829 6.81654 9.65766C6.42279 10.6062 5.62916 11.216 4.66666 11.4829C4.66316 11.6054 4.66316 11.7279 4.66666 11.8504V11.8504ZM11.6667 14.2917C10.9705 14.2917 10.3028 14.0151 9.81051 13.5228C9.31822 13.0305 9.04166 12.3629 9.04166 11.6667C9.04166 10.9705 9.31822 10.3028 9.81051 9.81051C10.3028 9.31822 10.9705 9.04166 11.6667 9.04166C12.3629 9.04166 13.0305 9.31822 13.5228 9.81051C14.0151 10.3028 14.2917 10.9705 14.2917 11.6667C14.2917 12.3629 14.0151 13.0305 13.5228 13.5228C13.0305 14.0151 12.3629 14.2917 11.6667 14.2917ZM11.6667 12.5417C11.8987 12.5417 12.1213 12.4495 12.2854 12.2854C12.4495 12.1213 12.5417 11.8987 12.5417 11.6667C12.5417 11.4346 12.4495 11.212 12.2854 11.0479C12.1213 10.8839 11.8987 10.7917 11.6667 10.7917C11.4346 10.7917 11.212 10.8839 11.0479 11.0479C10.8839 11.212 10.7917 11.4346 10.7917 11.6667C10.7917 11.8987 10.8839 12.1213 11.0479 12.2854C11.212 12.4495 11.4346 12.5417 11.6667 12.5417V12.5417Z" fill="#969696"/>
</svg>
