<svg width="24" height="24" viewBox="0 0 24 24" fill="none" xmlns="http://www.w3.org/2000/svg">
<path d="M3.96991 7.61568C3.96991 9.62922 5.6022 11.2615 7.61574 11.2615C9.62928 11.2615 11.2616 9.62922 11.2616 7.61568C11.2616 5.60215 9.62928 3.96985 7.61574 3.96985C5.6022 3.96985 3.96991 5.60215 3.96991 7.61568ZM3.96991 15.7175C3.96991 17.7311 5.6022 19.3634 7.61574 19.3634C9.62928 19.3634 11.2616 17.7311 11.2616 15.7175C11.2616 13.704 9.62928 12.0717 7.61574 12.0717C5.6022 12.0717 3.96991 13.704 3.96991 15.7175ZM12.0718 15.7175C12.0718 17.7311 13.704 19.3634 15.7176 19.3634C17.7311 19.3634 19.3634 17.7311 19.3634 15.7175C19.3634 13.704 17.7311 12.0717 15.7176 12.0717C13.704 12.0717 12.0718 13.704 12.0718 15.7175ZM9.6412 7.61568C9.6412 8.73431 8.73437 9.64115 7.61574 9.64115C6.49711 9.64115 5.59028 8.73431 5.59028 7.61568C5.59028 6.49705 6.49711 5.59022 7.61574 5.59022C8.73437 5.59022 9.6412 6.49705 9.6412 7.61568ZM9.6412 15.7175C9.6412 16.8362 8.73437 17.743 7.61574 17.743C6.49711 17.743 5.59028 16.8362 5.59028 15.7175C5.59028 14.5989 6.49711 13.6921 7.61574 13.6921C8.73437 13.6921 9.6412 14.5989 9.6412 15.7175ZM17.7431 15.7175C17.7431 16.8362 16.8362 17.743 15.7176 17.743C14.599 17.743 13.6921 16.8362 13.6921 15.7175C13.6921 14.5989 14.599 13.6921 15.7176 13.6921C16.8362 13.6921 17.7431 14.5989 17.7431 15.7175ZM14.9074 10.8564V8.42587H12.4769V6.8055H14.9074V4.37494H16.5278V6.8055H18.9583V8.42587H16.5278V10.8564H14.9074Z" fill="#969696"/>
</svg>
